<svg width="45" height="34" viewBox="0 0 45 34" fill="none" xmlns="http://www.w3.org/2000/svg">
<path d="M14.0211 33.687V31.4438C14.0338 31.2696 14.0119 31.0946 13.9567 30.929C13.9015 30.7633 13.814 30.6102 13.6993 30.4784C13.5846 30.3467 13.445 30.239 13.2885 30.1615C13.1319 30.084 12.9616 30.0382 12.7874 30.0269C12.7302 30.0212 12.6726 30.0212 12.6154 30.0269C12.3691 30.0125 12.1233 30.0638 11.9033 30.1755C11.6833 30.2871 11.4968 30.4552 11.363 30.6624C11.2411 30.4603 11.0672 30.2946 10.8593 30.1828C10.6515 30.071 10.4174 30.0171 10.1815 30.0269C9.97666 30.0179 9.77293 30.062 9.59016 30.1551C9.40738 30.2481 9.25178 30.3868 9.13847 30.5578V30.1166H8.36084V33.687H9.14595V31.7279C9.13065 31.6194 9.13689 31.509 9.16432 31.4029C9.19174 31.2968 9.23982 31.1971 9.3058 31.1096C9.37177 31.0221 9.45435 30.9485 9.54881 30.8929C9.64327 30.8373 9.74775 30.801 9.85629 30.7858C9.90973 30.7803 9.9636 30.7803 10.017 30.7858C10.533 30.7858 10.7947 31.1223 10.7947 31.7279V33.7131H11.5798V31.7279C11.5512 31.5068 11.6115 31.2834 11.7475 31.1068C11.8835 30.9301 12.084 30.8147 12.3051 30.7858C12.3548 30.7801 12.4049 30.7801 12.4546 30.7858C12.9818 30.7858 13.236 31.1223 13.236 31.7279V33.7131L14.0211 33.687ZM18.3953 31.9037V30.1166H17.6251V30.5503C17.4931 30.3804 17.3225 30.2443 17.1275 30.1533C16.9325 30.0623 16.7186 30.0189 16.5036 30.0269C16.0078 30.0269 15.5323 30.2238 15.1818 30.5744C14.8312 30.9249 14.6342 31.4004 14.6342 31.8962C14.6342 32.3919 14.8312 32.8674 15.1818 33.218C15.5323 33.5685 16.0078 33.7655 16.5036 33.7655C16.7186 33.7734 16.9325 33.7301 17.1275 33.6391C17.3225 33.5481 17.4931 33.412 17.6251 33.2421V33.6758H18.399L18.3953 31.9037ZM15.5053 31.9037C15.5166 31.6161 15.6402 31.3444 15.8496 31.147C16.059 30.9495 16.3374 30.8421 16.6252 30.8477C16.9129 30.8533 17.1869 30.9716 17.3884 31.1771C17.5899 31.3825 17.7028 31.6589 17.7028 31.9466C17.7028 32.2344 17.5899 32.5108 17.3884 32.7162C17.1869 32.9217 16.9129 33.04 16.6252 33.0456C16.3374 33.0512 16.059 32.9438 15.8496 32.7463C15.6402 32.5489 15.5166 32.2772 15.5053 31.9896V31.9037ZM35.0135 30.0343C35.2696 30.0358 35.5233 30.0852 35.7612 30.1802C35.9877 30.2682 36.1941 30.401 36.3682 30.5706C36.5423 30.7401 36.6804 30.943 36.7744 31.1671C36.9697 31.6465 36.9697 32.1832 36.7744 32.6626C36.6811 32.8858 36.5437 33.088 36.3706 33.257C36.1954 33.4277 35.9883 33.5624 35.7612 33.6533C35.2693 33.8439 34.724 33.8439 34.2321 33.6533C34.005 33.5624 33.798 33.4277 33.6227 33.257C33.4507 33.0879 33.3146 32.8857 33.2227 32.6626C33.0274 32.1832 33.0274 31.6465 33.2227 31.1671C33.3151 30.9427 33.4522 30.7394 33.6258 30.5697C33.7993 30.4001 34.0056 30.2675 34.2321 30.1802C34.4798 30.0773 34.7453 30.0239 35.0135 30.0231V30.0343ZM35.0135 30.7821C34.8611 30.779 34.7098 30.807 34.5686 30.8643C34.4351 30.9174 34.3142 30.9976 34.2134 31.0999C34.1109 31.2076 34.0308 31.3347 33.9779 31.4737C33.8657 31.7726 33.8657 32.102 33.9779 32.4009C34.0308 32.5399 34.1109 32.667 34.2134 32.7748C34.3132 32.8783 34.4344 32.9587 34.5686 33.0103C34.8533 33.1226 35.17 33.1226 35.4546 33.0103C35.5955 32.9612 35.7234 32.8806 35.8285 32.7748C35.9337 32.6684 36.0152 32.541 36.0678 32.4009C36.1799 32.102 36.1799 31.7726 36.0678 31.4737C36.014 31.3391 35.9337 31.2168 35.8315 31.114C35.7294 31.0112 35.6076 30.9301 35.4733 30.8755C35.3301 30.8046 35.1733 30.7651 35.0135 30.7596V30.7821ZM22.6199 31.9261C22.6199 30.8045 21.9283 30.0568 20.9263 30.0568C20.4306 30.0637 19.9579 30.2673 19.6122 30.6228C19.2666 30.9783 19.0763 31.4565 19.0832 31.9523C19.0901 32.448 19.2938 32.9207 19.6492 33.2664C20.0047 33.612 20.4829 33.8023 20.9787 33.7954C21.5111 33.8143 22.0316 33.6359 22.4405 33.2944L22.0666 32.7187C21.7714 32.9554 21.4057 33.087 21.0273 33.0925C20.7702 33.1146 20.5147 33.0356 20.315 32.8722C20.1154 32.7089 19.9873 32.474 19.958 32.2177H22.6087C22.6125 32.1018 22.6199 32.0083 22.6199 31.9037V31.9261ZM19.9618 31.612C19.9763 31.3724 20.0835 31.1478 20.2608 30.9859C20.438 30.824 20.6714 30.7374 20.9114 30.7447C21.1461 30.7407 21.3729 30.8296 21.5424 30.992C21.7119 31.1545 21.8103 31.3774 21.8161 31.612H19.9618ZM25.8912 31.0512C25.5494 30.8557 25.1634 30.7502 24.7697 30.7447C24.3435 30.7447 24.0892 30.9017 24.0892 31.1634C24.0892 31.4251 24.3584 31.47 24.6949 31.5148L25.0687 31.5672C25.8464 31.6793 26.3174 32.0083 26.3174 32.6327C26.3174 33.3131 25.7193 33.7991 24.6911 33.7991C24.1388 33.8151 23.596 33.6526 23.1434 33.3355L23.5172 32.7299C23.8607 32.9836 24.2792 33.1152 24.7061 33.1038C25.2332 33.1038 25.5174 32.9467 25.5174 32.6701C25.5174 32.4682 25.3155 32.356 24.893 32.2962L24.5192 32.2439C23.7191 32.1354 23.2854 31.7765 23.2854 31.1933C23.2854 30.483 23.8686 30.0493 24.7809 30.0493C25.2913 30.0334 25.7957 30.1631 26.2352 30.4232L25.8912 31.0512ZM29.6299 30.8494H28.355V32.4607C28.355 32.8346 28.4821 33.0589 28.8672 33.0589C29.1098 33.0505 29.3464 32.9811 29.5551 32.857L29.7794 33.5225C29.4879 33.7044 29.151 33.8003 28.8074 33.7991C27.8914 33.7991 27.5699 33.3056 27.5699 32.4757V30.8269H26.8446V30.1166H27.5699V29.0361H28.355V30.1166H29.6224L29.6299 30.8494ZM32.3179 30.0493C32.5064 30.0518 32.6932 30.0846 32.8712 30.1465L32.632 30.8942C32.4774 30.8329 32.3123 30.8024 32.146 30.8045C31.6375 30.8045 31.3982 31.1335 31.3982 31.7242V33.7244H30.6019V30.1166H31.3683V30.5503C31.4641 30.3866 31.602 30.2517 31.7677 30.1596C31.9335 30.0675 32.1209 30.0217 32.3105 30.0269L32.3179 30.0493ZM37.6941 33.1897C37.7415 33.1886 37.7887 33.1975 37.8324 33.2159C37.8756 33.2346 37.915 33.2612 37.9483 33.2944C37.9819 33.326 38.0086 33.3642 38.0268 33.4066C38.0622 33.4954 38.0622 33.5944 38.0268 33.6832C38.0078 33.7251 37.9811 33.7632 37.9483 33.7954C37.9161 33.8291 37.8764 33.8547 37.8324 33.8702C37.7889 33.8897 37.7418 33.8999 37.6941 33.9001C37.6232 33.8995 37.5539 33.8789 37.4944 33.8405C37.4348 33.8021 37.3874 33.7476 37.3576 33.6832C37.3222 33.5944 37.3222 33.4954 37.3576 33.4066C37.3758 33.3642 37.4025 33.326 37.4361 33.2944C37.4694 33.2612 37.5088 33.2346 37.552 33.2159C37.5933 33.1912 37.639 33.1747 37.6866 33.1673L37.6941 33.1897ZM37.6941 33.8216C37.7302 33.8217 37.7659 33.8141 37.7988 33.7991C37.8321 33.7849 37.8625 33.7647 37.8885 33.7393C37.9361 33.6887 37.9625 33.6219 37.9625 33.5524C37.9625 33.4829 37.9361 33.4161 37.8885 33.3655C37.8625 33.3401 37.8321 33.3198 37.7988 33.3056C37.7659 33.2907 37.7302 33.2831 37.6941 33.2832C37.6568 33.2831 37.6198 33.2907 37.5856 33.3056C37.5515 33.3184 37.5208 33.3388 37.4959 33.3655C37.4483 33.4161 37.4219 33.4829 37.4219 33.5524C37.4219 33.6219 37.4483 33.6887 37.4959 33.7393C37.55 33.782 37.6178 33.8033 37.6866 33.7991L37.6941 33.8216ZM37.6941 33.3767C37.7299 33.3768 37.7649 33.3871 37.795 33.4066C37.806 33.4164 37.8147 33.4285 37.8206 33.4421C37.8264 33.4557 37.8291 33.4703 37.8287 33.4851C37.8275 33.5105 37.8168 33.5345 37.7988 33.5524C37.7784 33.5713 37.7517 33.5819 37.724 33.5823L37.8324 33.7094H37.7464L37.6455 33.586H37.6156V33.7094H37.5445V33.3767H37.6941ZM37.6156 33.4402V33.53H37.6941C37.7088 33.5333 37.7242 33.5333 37.7389 33.53C37.7419 33.5248 37.7434 33.519 37.7434 33.5131C37.7434 33.5072 37.7419 33.5014 37.7389 33.4963C37.7423 33.4913 37.7441 33.4855 37.7441 33.4795C37.7441 33.4735 37.7423 33.4676 37.7389 33.4627C37.7242 33.4593 37.7088 33.4593 37.6941 33.4627L37.6156 33.4402Z" fill="black"/>
<path d="M28.5195 2.87695H16.7428V24.0413H28.5195V2.87695Z" fill="#7375CF"/>
<path d="M17.4906 13.4609C17.4884 11.4223 17.9501 9.41001 18.8408 7.57628C19.7314 5.74256 21.0276 4.13553 22.6312 2.87688C20.6457 1.31646 18.2612 0.346125 15.7503 0.0767801C13.2393 -0.192565 10.7033 0.249945 8.43197 1.35373C6.16065 2.45752 4.24568 4.17806 2.90593 6.3187C1.56619 8.45934 0.855713 10.9337 0.855713 13.459C0.855713 15.9844 1.56619 18.4588 2.90593 20.5994C4.24568 22.74 6.16065 24.4606 8.43197 25.5644C10.7033 26.6681 13.2393 27.1107 15.7503 26.8413C18.2612 26.572 20.6457 25.6016 22.6312 24.0412C21.0281 22.783 19.7322 21.1765 18.8416 19.3435C17.951 17.5105 17.489 15.4989 17.4906 13.4609Z" fill="#EB001B"/>
<path d="M43.1226 21.8017V21.368H43.2983V21.2783H42.8534V21.368H43.0254V21.8017H43.1226ZM43.9862 21.8017V21.2783H43.8479L43.6908 21.6522L43.5338 21.2783H43.3992V21.8017H43.4964V21.4054L43.6422 21.7456H43.7432L43.889 21.4054V21.8017H43.9862Z" fill="#00A2E5"/>
<path d="M44.405 13.461C44.4044 15.9859 43.6935 18.4596 42.3537 20.5997C41.0139 22.7398 39.0992 24.4598 36.8282 25.5633C34.5573 26.6668 32.0217 27.1092 29.5113 26.8401C27.0008 26.571 24.6167 25.6011 22.6312 24.0413C24.2337 22.7819 25.5292 21.175 26.4201 19.3419C27.3109 17.5088 27.7738 15.4973 27.7738 13.4591C27.7738 11.421 27.3109 9.40948 26.4201 7.57635C25.5292 5.74321 24.2337 4.13634 22.6312 2.87696C24.6169 1.31696 27.0014 0.347046 29.5122 0.0780531C32.023 -0.19094 34.5589 0.25184 36.8299 1.35579C39.101 2.45975 41.0157 4.18034 42.3552 6.32095C43.6948 8.46156 44.4051 10.9358 44.405 13.461Z" fill="#00A2E5"/>
</svg>
